<?xml version="1.0" encoding="UTF-8"?>
<svg xmlns="http://www.w3.org/2000/svg" xmlns:xlink="http://www.w3.org/1999/xlink" width="229pt" height="104pt" viewBox="0 0 229 104">
<defs>
<g>
<g id="glyph-0-0">
<path d="M 3.328125 -3.015625 C 3.390625 -3.265625 3.625 -4.1875 4.3125 -4.1875 C 4.359375 -4.1875 4.609375 -4.1875 4.8125 -4.0625 C 4.53125 -4 4.34375 -3.765625 4.34375 -3.515625 C 4.34375 -3.359375 4.453125 -3.171875 4.71875 -3.171875 C 4.9375 -3.171875 5.25 -3.34375 5.25 -3.75 C 5.25 -4.265625 4.671875 -4.40625 4.328125 -4.40625 C 3.75 -4.40625 3.40625 -3.875 3.28125 -3.65625 C 3.03125 -4.3125 2.5 -4.40625 2.203125 -4.40625 C 1.171875 -4.40625 0.59375 -3.125 0.59375 -2.875 C 0.59375 -2.765625 0.703125 -2.765625 0.71875 -2.765625 C 0.796875 -2.765625 0.828125 -2.796875 0.84375 -2.875 C 1.1875 -3.9375 1.84375 -4.1875 2.1875 -4.1875 C 2.375 -4.1875 2.71875 -4.09375 2.71875 -3.515625 C 2.71875 -3.203125 2.546875 -2.546875 2.1875 -1.140625 C 2.03125 -0.53125 1.671875 -0.109375 1.234375 -0.109375 C 1.171875 -0.109375 0.953125 -0.109375 0.734375 -0.234375 C 0.984375 -0.296875 1.203125 -0.5 1.203125 -0.78125 C 1.203125 -1.046875 0.984375 -1.125 0.84375 -1.125 C 0.53125 -1.125 0.296875 -0.875 0.296875 -0.546875 C 0.296875 -0.09375 0.78125 0.109375 1.21875 0.109375 C 1.890625 0.109375 2.25 -0.59375 2.265625 -0.640625 C 2.390625 -0.28125 2.75 0.109375 3.34375 0.109375 C 4.375 0.109375 4.9375 -1.171875 4.9375 -1.421875 C 4.9375 -1.53125 4.859375 -1.53125 4.828125 -1.53125 C 4.734375 -1.53125 4.71875 -1.484375 4.6875 -1.421875 C 4.359375 -0.34375 3.6875 -0.109375 3.375 -0.109375 C 2.984375 -0.109375 2.828125 -0.421875 2.828125 -0.765625 C 2.828125 -0.984375 2.875 -1.203125 2.984375 -1.640625 Z M 3.328125 -3.015625 "/>
</g>
<g id="glyph-0-1">
<path d="M 4.84375 -3.796875 C 4.890625 -3.9375 4.890625 -3.953125 4.890625 -4.03125 C 4.890625 -4.203125 4.75 -4.296875 4.59375 -4.296875 C 4.5 -4.296875 4.34375 -4.234375 4.25 -4.09375 C 4.234375 -4.03125 4.140625 -3.734375 4.109375 -3.546875 C 4.03125 -3.296875 3.96875 -3.015625 3.90625 -2.75 L 3.453125 -0.953125 C 3.421875 -0.8125 2.984375 -0.109375 2.328125 -0.109375 C 1.828125 -0.109375 1.71875 -0.546875 1.71875 -0.921875 C 1.71875 -1.375 1.890625 -2 2.21875 -2.875 C 2.375 -3.28125 2.421875 -3.390625 2.421875 -3.59375 C 2.421875 -4.03125 2.109375 -4.40625 1.609375 -4.40625 C 0.65625 -4.40625 0.296875 -2.953125 0.296875 -2.875 C 0.296875 -2.765625 0.390625 -2.765625 0.40625 -2.765625 C 0.515625 -2.765625 0.515625 -2.796875 0.5625 -2.953125 C 0.84375 -3.890625 1.234375 -4.1875 1.578125 -4.1875 C 1.65625 -4.1875 1.828125 -4.1875 1.828125 -3.875 C 1.828125 -3.625 1.71875 -3.359375 1.65625 -3.171875 C 1.25 -2.109375 1.078125 -1.546875 1.078125 -1.078125 C 1.078125 -0.1875 1.703125 0.109375 2.296875 0.109375 C 2.6875 0.109375 3.015625 -0.0625 3.296875 -0.34375 C 3.171875 0.171875 3.046875 0.671875 2.65625 1.203125 C 2.390625 1.53125 2.015625 1.828125 1.5625 1.828125 C 1.421875 1.828125 0.96875 1.796875 0.796875 1.40625 C 0.953125 1.40625 1.09375 1.40625 1.21875 1.28125 C 1.328125 1.203125 1.421875 1.0625 1.421875 0.875 C 1.421875 0.5625 1.15625 0.53125 1.0625 0.53125 C 0.828125 0.53125 0.5 0.6875 0.5 1.171875 C 0.5 1.671875 0.9375 2.046875 1.5625 2.046875 C 2.578125 2.046875 3.609375 1.140625 3.890625 0.015625 Z M 4.84375 -3.796875 "/>
</g>
<g id="glyph-0-2">
<path d="M 1.78125 -1.140625 C 1.390625 -0.484375 1 -0.34375 0.5625 -0.3125 C 0.4375 -0.296875 0.34375 -0.296875 0.34375 -0.109375 C 0.34375 -0.046875 0.40625 0 0.484375 0 C 0.75 0 1.0625 -0.03125 1.328125 -0.03125 C 1.671875 -0.03125 2.015625 0 2.328125 0 C 2.390625 0 2.515625 0 2.515625 -0.1875 C 2.515625 -0.296875 2.4375 -0.3125 2.359375 -0.3125 C 2.140625 -0.328125 1.890625 -0.40625 1.890625 -0.65625 C 1.890625 -0.78125 1.953125 -0.890625 2.03125 -1.03125 L 2.796875 -2.296875 L 5.296875 -2.296875 C 5.3125 -2.09375 5.453125 -0.734375 5.453125 -0.640625 C 5.453125 -0.34375 4.9375 -0.3125 4.734375 -0.3125 C 4.59375 -0.3125 4.5 -0.3125 4.5 -0.109375 C 4.5 0 4.609375 0 4.640625 0 C 5.046875 0 5.46875 -0.03125 5.875 -0.03125 C 6.125 -0.03125 6.765625 0 7.015625 0 C 7.0625 0 7.1875 0 7.1875 -0.203125 C 7.1875 -0.3125 7.09375 -0.3125 6.953125 -0.3125 C 6.34375 -0.3125 6.34375 -0.375 6.3125 -0.671875 L 5.703125 -6.890625 C 5.6875 -7.09375 5.6875 -7.140625 5.515625 -7.140625 C 5.359375 -7.140625 5.3125 -7.0625 5.25 -6.96875 Z M 2.984375 -2.609375 L 4.9375 -5.90625 L 5.265625 -2.609375 Z M 2.984375 -2.609375 "/>
</g>
<g id="glyph-0-3">
<path d="M 1.59375 -0.78125 C 1.5 -0.390625 1.46875 -0.3125 0.6875 -0.3125 C 0.515625 -0.3125 0.421875 -0.3125 0.421875 -0.109375 C 0.421875 0 0.515625 0 0.6875 0 L 4.25 0 C 5.828125 0 7 -1.171875 7 -2.15625 C 7 -2.875 6.421875 -3.453125 5.453125 -3.5625 C 6.484375 -3.75 7.53125 -4.484375 7.53125 -5.4375 C 7.53125 -6.171875 6.875 -6.8125 5.6875 -6.8125 L 2.328125 -6.8125 C 2.140625 -6.8125 2.046875 -6.8125 2.046875 -6.609375 C 2.046875 -6.5 2.140625 -6.5 2.328125 -6.5 C 2.34375 -6.5 2.53125 -6.5 2.703125 -6.484375 C 2.875 -6.453125 2.96875 -6.453125 2.96875 -6.3125 C 2.96875 -6.28125 2.953125 -6.25 2.9375 -6.125 Z M 3.09375 -3.65625 L 3.71875 -6.125 C 3.8125 -6.46875 3.828125 -6.5 4.25 -6.5 L 5.546875 -6.5 C 6.421875 -6.5 6.625 -5.90625 6.625 -5.46875 C 6.625 -4.59375 5.765625 -3.65625 4.5625 -3.65625 Z M 2.65625 -0.3125 C 2.515625 -0.3125 2.5 -0.3125 2.4375 -0.3125 C 2.328125 -0.328125 2.296875 -0.34375 2.296875 -0.421875 C 2.296875 -0.453125 2.296875 -0.46875 2.359375 -0.640625 L 3.046875 -3.421875 L 4.921875 -3.421875 C 5.875 -3.421875 6.078125 -2.6875 6.078125 -2.265625 C 6.078125 -1.28125 5.1875 -0.3125 4 -0.3125 Z M 2.65625 -0.3125 "/>
</g>
<g id="glyph-0-4">
<path d="M 7.375 -4.34375 C 7.375 -5.953125 6.3125 -7.03125 4.828125 -7.03125 C 2.6875 -7.03125 0.484375 -4.765625 0.484375 -2.4375 C 0.484375 -0.78125 1.609375 0.21875 3.046875 0.21875 C 5.15625 0.21875 7.375 -1.96875 7.375 -4.34375 Z M 3.09375 -0.046875 C 2.109375 -0.046875 1.421875 -0.84375 1.421875 -2.15625 C 1.421875 -2.609375 1.5625 -4.0625 2.328125 -5.21875 C 3.015625 -6.265625 3.984375 -6.78125 4.78125 -6.78125 C 5.59375 -6.78125 6.484375 -6.21875 6.484375 -4.734375 C 6.484375 -4.015625 6.21875 -2.46875 5.234375 -1.234375 C 4.75 -0.625 3.9375 -0.046875 3.09375 -0.046875 Z M 3.09375 -0.046875 "/>
</g>
</g>
</defs>
<path fill-rule="nonzero" fill="rgb(93.299866%, 100%, 94.499207%)" fill-opacity="1" d="M 75.695312 50.867188 C 75.695312 30.828125 59.449219 14.582031 39.410156 14.582031 C 19.371094 14.582031 3.125 30.828125 3.125 50.867188 C 3.125 70.90625 19.371094 87.148438 39.410156 87.148438 C 59.449219 87.148438 75.695312 70.90625 75.695312 50.867188 Z M 75.695312 50.867188 "/>
<path fill-rule="nonzero" fill="rgb(94.999695%, 94.999695%, 100%)" fill-opacity="1" d="M 39.410156 50.867188 L 69.132812 30.054688 C 57.636719 13.640625 35.011719 9.648438 18.597656 21.144531 C 2.183594 32.636719 -1.804688 55.261719 9.6875 71.679688 C 17.121094 82.296875 29.660156 88.140625 42.570312 87.011719 C 53.253906 86.078125 62.980469 80.460938 69.132812 71.679688 Z M 39.410156 50.867188 "/>
<path fill="none" stroke-width="0.79701" stroke-linecap="round" stroke-linejoin="round" stroke="rgb(0%, 0%, 79.998779%)" stroke-opacity="1" stroke-miterlimit="10" d="M 36.285313 -0.0011875 C 36.285313 20.037875 20.039219 36.283969 0.00015625 36.283969 C -20.038906 36.283969 -36.285 20.037875 -36.285 -0.0011875 C -36.285 -20.04025 -20.038906 -36.282438 0.00015625 -36.282438 C 20.039219 -36.282438 36.285313 -20.04025 36.285313 -0.0011875 Z M 36.285313 -0.0011875 " transform="matrix(1, 0, 0, -1, 39.41, 50.866)"/>
<path fill="none" stroke-width="0.79701" stroke-linecap="round" stroke-linejoin="round" stroke="rgb(0%, 0%, 79.998779%)" stroke-opacity="1" stroke-miterlimit="10" d="M 0.00015625 -0.0011875 L 55.730625 39.02225 " transform="matrix(1, 0, 0, -1, 39.41, 50.866)"/>
<path fill="none" stroke-width="0.79701" stroke-linecap="round" stroke-linejoin="round" stroke="rgb(0%, 0%, 79.998779%)" stroke-opacity="1" stroke-miterlimit="10" d="M 0.00015625 -0.0011875 L 55.730625 -39.020719 " transform="matrix(1, 0, 0, -1, 39.41, 50.866)"/>
<g fill="rgb(0%, 0%, 79.998779%)" fill-opacity="1">
<use xlink:href="#glyph-0-0" x="94.15" y="6.708"/>
</g>
<g fill="rgb(0%, 0%, 79.998779%)" fill-opacity="1">
<use xlink:href="#glyph-0-1" x="94.376" y="99.313"/>
</g>
<path fill-rule="nonzero" fill="rgb(70.599365%, 19.599915%, 19.599915%)" fill-opacity="1" d="M 70.328125 30.054688 C 70.328125 29.394531 69.792969 28.859375 69.132812 28.859375 C 68.472656 28.859375 67.9375 29.394531 67.9375 30.054688 C 67.9375 30.714844 68.472656 31.25 69.132812 31.25 C 69.792969 31.25 70.328125 30.714844 70.328125 30.054688 Z M 70.328125 30.054688 "/>
<g fill="rgb(0%, 0%, 79.998779%)" fill-opacity="1">
<use xlink:href="#glyph-0-2" x="65.396" y="26.219"/>
</g>
<path fill-rule="nonzero" fill="rgb(70.599365%, 19.599915%, 19.599915%)" fill-opacity="1" d="M 70.328125 71.675781 C 70.328125 71.015625 69.792969 70.480469 69.132812 70.480469 C 68.472656 70.480469 67.9375 71.015625 67.9375 71.675781 C 67.9375 72.339844 68.472656 72.875 69.132812 72.875 C 69.792969 72.875 70.328125 72.339844 70.328125 71.675781 Z M 70.328125 71.675781 "/>
<g fill="rgb(0%, 0%, 79.998779%)" fill-opacity="1">
<use xlink:href="#glyph-0-3" x="65.104" y="82.321"/>
</g>
<path fill-rule="nonzero" fill="rgb(70.599365%, 19.599915%, 19.599915%)" fill-opacity="1" d="M 40.605469 50.867188 C 40.605469 50.207031 40.070312 49.671875 39.410156 49.671875 C 38.75 49.671875 38.214844 50.207031 38.214844 50.867188 C 38.214844 51.527344 38.75 52.0625 39.410156 52.0625 C 40.070312 52.0625 40.605469 51.527344 40.605469 50.867188 Z M 40.605469 50.867188 "/>
<g fill="rgb(0%, 0%, 79.998779%)" fill-opacity="1">
<use xlink:href="#glyph-0-4" x="27.699" y="54.27"/>
</g>
<path fill="none" stroke-width="0.3985" stroke-linecap="round" stroke-linejoin="round" stroke="rgb(0%, 0%, 79.998779%)" stroke-opacity="1" stroke-miterlimit="10" d="M 8.359531 -5.85275 C 10.820469 -2.341031 10.820469 2.338656 8.359531 5.854281 " transform="matrix(1, 0, 0, -1, 39.41, 50.866)"/>
<path fill-rule="nonzero" fill="rgb(93.299866%, 100%, 94.499207%)" fill-opacity="1" d="M 202.6875 50.867188 C 202.6875 30.828125 186.445312 14.582031 166.40625 14.582031 C 146.363281 14.582031 130.121094 30.828125 130.121094 50.867188 C 130.121094 70.90625 146.363281 87.148438 166.40625 87.148438 C 186.445312 87.148438 202.6875 70.90625 202.6875 50.867188 Z M 202.6875 50.867188 "/>
<path fill-rule="nonzero" fill="rgb(94.999695%, 94.999695%, 100%)" fill-opacity="1" d="M 166.40625 50.867188 L 196.125 30.054688 C 204.875 42.546875 204.875 59.183594 196.125 71.679688 Z M 166.40625 50.867188 "/>
<path fill="none" stroke-width="0.79701" stroke-linecap="round" stroke-linejoin="round" stroke="rgb(0%, 0%, 79.998779%)" stroke-opacity="1" stroke-miterlimit="10" d="M 163.2775 -0.0011875 C 163.2775 20.037875 147.035313 36.283969 126.99625 36.283969 C 106.953281 36.283969 90.711094 20.037875 90.711094 -0.0011875 C 90.711094 -20.04025 106.953281 -36.282438 126.99625 -36.282438 C 147.035313 -36.282438 163.2775 -20.04025 163.2775 -0.0011875 Z M 163.2775 -0.0011875 " transform="matrix(1, 0, 0, -1, 39.41, 50.866)"/>
<path fill="none" stroke-width="0.79701" stroke-linecap="round" stroke-linejoin="round" stroke="rgb(0%, 0%, 79.998779%)" stroke-opacity="1" stroke-miterlimit="10" d="M 126.99625 -0.0011875 L 182.722813 39.02225 " transform="matrix(1, 0, 0, -1, 39.41, 50.866)"/>
<path fill="none" stroke-width="0.79701" stroke-linecap="round" stroke-linejoin="round" stroke="rgb(0%, 0%, 79.998779%)" stroke-opacity="1" stroke-miterlimit="10" d="M 126.99625 -0.0011875 L 182.722813 -39.020719 " transform="matrix(1, 0, 0, -1, 39.41, 50.866)"/>
<g fill="rgb(0%, 0%, 79.998779%)" fill-opacity="1">
<use xlink:href="#glyph-0-0" x="221.144" y="6.708"/>
</g>
<g fill="rgb(0%, 0%, 79.998779%)" fill-opacity="1">
<use xlink:href="#glyph-0-1" x="221.37" y="99.313"/>
</g>
<path fill-rule="nonzero" fill="rgb(70.599365%, 19.599915%, 19.599915%)" fill-opacity="1" d="M 197.320312 30.054688 C 197.320312 29.394531 196.785156 28.859375 196.125 28.859375 C 195.464844 28.859375 194.929688 29.394531 194.929688 30.054688 C 194.929688 30.714844 195.464844 31.25 196.125 31.25 C 196.785156 31.25 197.320312 30.714844 197.320312 30.054688 Z M 197.320312 30.054688 "/>
<g fill="rgb(0%, 0%, 79.998779%)" fill-opacity="1">
<use xlink:href="#glyph-0-2" x="192.39" y="26.219"/>
</g>
<path fill-rule="nonzero" fill="rgb(70.599365%, 19.599915%, 19.599915%)" fill-opacity="1" d="M 197.320312 71.675781 C 197.320312 71.015625 196.785156 70.480469 196.125 70.480469 C 195.464844 70.480469 194.929688 71.015625 194.929688 71.675781 C 194.929688 72.339844 195.464844 72.875 196.125 72.875 C 196.785156 72.875 197.320312 72.339844 197.320312 71.675781 Z M 197.320312 71.675781 "/>
<g fill="rgb(0%, 0%, 79.998779%)" fill-opacity="1">
<use xlink:href="#glyph-0-3" x="192.098" y="82.321"/>
</g>
<path fill-rule="nonzero" fill="rgb(70.599365%, 19.599915%, 19.599915%)" fill-opacity="1" d="M 167.601562 50.867188 C 167.601562 50.207031 167.066406 49.671875 166.40625 49.671875 C 165.742188 49.671875 165.207031 50.207031 165.207031 50.867188 C 165.207031 51.527344 165.742188 52.0625 166.40625 52.0625 C 167.066406 52.0625 167.601562 51.527344 167.601562 50.867188 Z M 167.601562 50.867188 "/>
<g fill="rgb(0%, 0%, 79.998779%)" fill-opacity="1">
<use xlink:href="#glyph-0-4" x="154.693" y="54.27"/>
</g>
<path fill="none" stroke-width="0.3985" stroke-linecap="round" stroke-linejoin="round" stroke="rgb(0%, 0%, 79.998779%)" stroke-opacity="1" stroke-miterlimit="10" d="M 135.351719 -5.85275 C 137.812656 -2.341031 137.812656 2.338656 135.351719 5.854281 " transform="matrix(1, 0, 0, -1, 39.41, 50.866)"/>
<path fill="none" stroke-width="0.79701" stroke-linecap="round" stroke-linejoin="round" stroke="rgb(70.599365%, 19.599915%, 19.599915%)" stroke-opacity="1" stroke-miterlimit="10" d="M 156.715 -20.809781 C 165.465 -8.317594 165.465 8.319125 156.715 20.811312 " transform="matrix(1, 0, 0, -1, 39.41, 50.866)"/>
</svg>
