<?xml version="1.0" encoding="UTF-8"?>
<svg xmlns="http://www.w3.org/2000/svg" xmlns:xlink="http://www.w3.org/1999/xlink" width="56pt" height="56pt" viewBox="0 0 56 56">
<path fill="none" stroke-width="0.79701" stroke-linecap="butt" stroke-linejoin="miter" stroke="rgb(0%, 0%, 0%)" stroke-opacity="1" stroke-miterlimit="10" d="M 0.0000625 0.00059375 L 0.0000625 42.520125 L 42.519594 42.520125 L 42.519594 0.00059375 Z M 0.0000625 0.00059375 " transform="matrix(1, 0, 0, -1, 7.039, 49.067)"/>
<path fill="none" stroke-width="0.3985" stroke-linecap="butt" stroke-linejoin="miter" stroke="rgb(0%, 0%, 0%)" stroke-opacity="1" stroke-miterlimit="10" d="M 0.0000625 5.668562 L 5.668031 5.668562 L 5.668031 0.00059375 " transform="matrix(1, 0, 0, -1, 7.039, 49.067)"/>
<path fill="none" stroke-width="0.3985" stroke-linecap="butt" stroke-linejoin="miter" stroke="rgb(0%, 0%, 0%)" stroke-opacity="1" stroke-miterlimit="10" d="M 42.519594 5.668562 L 36.851625 5.668562 L 36.851625 0.00059375 " transform="matrix(1, 0, 0, -1, 7.039, 49.067)"/>
<path fill="none" stroke-width="0.3985" stroke-linecap="butt" stroke-linejoin="miter" stroke="rgb(0%, 0%, 0%)" stroke-opacity="1" stroke-miterlimit="10" d="M 0.0000625 36.852156 L 5.668031 36.852156 L 5.668031 42.520125 " transform="matrix(1, 0, 0, -1, 7.039, 49.067)"/>
<path fill="none" stroke-width="0.3985" stroke-linecap="butt" stroke-linejoin="miter" stroke="rgb(0%, 0%, 0%)" stroke-opacity="1" stroke-miterlimit="10" d="M 42.519594 36.852156 L 36.851625 36.852156 L 36.851625 42.520125 " transform="matrix(1, 0, 0, -1, 7.039, 49.067)"/>
<path fill="none" stroke-width="0.79701" stroke-linecap="butt" stroke-linejoin="miter" stroke="rgb(0%, 0%, 0%)" stroke-opacity="1" stroke-miterlimit="10" d="M 21.261781 -4.253313 L 21.261781 46.774031 " transform="matrix(1, 0, 0, -1, 7.039, 49.067)"/>
<path fill="none" stroke-width="0.79701" stroke-linecap="butt" stroke-linejoin="miter" stroke="rgb(0%, 0%, 0%)" stroke-opacity="1" stroke-miterlimit="10" d="M -4.253844 21.258406 L 46.7735 21.258406 " transform="matrix(1, 0, 0, -1, 7.039, 49.067)"/>
<path fill="none" stroke-width="0.3985" stroke-linecap="butt" stroke-linejoin="miter" stroke="rgb(0%, 0%, 0%)" stroke-opacity="1" stroke-miterlimit="10" d="M 21.261781 26.930281 L 26.92975 26.930281 L 26.92975 21.258406 " transform="matrix(1, 0, 0, -1, 7.039, 49.067)"/>
</svg>
