<?xml version="1.0" encoding="UTF-8"?>
<svg xmlns="http://www.w3.org/2000/svg" xmlns:xlink="http://www.w3.org/1999/xlink" width="73pt" height="62pt" viewBox="0 0 73 62">
<defs>
<g>
<g id="glyph-0-0">
<path d="M 1.15625 0.84375 C 1.15625 0.828125 1.15625 0.8125 1.09375 0.765625 C 0.65625 0.328125 0.546875 -0.34375 0.546875 -0.875 C 0.546875 -1.484375 0.671875 -2.078125 1.109375 -2.515625 C 1.15625 -2.5625 1.15625 -2.5625 1.15625 -2.578125 C 1.15625 -2.609375 1.140625 -2.609375 1.125 -2.609375 C 1.078125 -2.609375 0.765625 -2.375 0.5625 -1.9375 C 0.390625 -1.546875 0.34375 -1.15625 0.34375 -0.875 C 0.34375 -0.59375 0.390625 -0.171875 0.578125 0.21875 C 0.78125 0.640625 1.078125 0.875 1.125 0.875 C 1.140625 0.875 1.15625 0.859375 1.15625 0.84375 Z M 1.15625 0.84375 "/>
</g>
<g id="glyph-0-1">
<path d="M 1 -0.875 C 1 -1.140625 0.96875 -1.5625 0.78125 -1.953125 C 0.5625 -2.390625 0.265625 -2.609375 0.234375 -2.609375 C 0.21875 -2.609375 0.203125 -2.59375 0.203125 -2.578125 C 0.203125 -2.5625 0.203125 -2.5625 0.265625 -2.5 C 0.609375 -2.15625 0.8125 -1.59375 0.8125 -0.875 C 0.8125 -0.28125 0.671875 0.34375 0.25 0.78125 C 0.203125 0.8125 0.203125 0.828125 0.203125 0.84375 C 0.203125 0.859375 0.21875 0.875 0.234375 0.875 C 0.265625 0.875 0.578125 0.640625 0.78125 0.1875 C 0.96875 -0.1875 1 -0.578125 1 -0.875 Z M 1 -0.875 "/>
</g>
<g id="glyph-0-2">
<path d="M 1.5625 -0.609375 L 1.484375 -0.609375 C 1.453125 -0.5 1.4375 -0.34375 1.40625 -0.296875 C 1.375 -0.265625 1.140625 -0.265625 1.0625 -0.265625 L 0.4375 -0.265625 L 0.8125 -0.625 C 1.359375 -1.109375 1.5625 -1.296875 1.5625 -1.640625 C 1.5625 -2.046875 1.25 -2.328125 0.828125 -2.328125 C 0.4375 -2.328125 0.171875 -2 0.171875 -1.6875 C 0.171875 -1.5 0.34375 -1.5 0.359375 -1.5 C 0.421875 -1.5 0.546875 -1.53125 0.546875 -1.671875 C 0.546875 -1.765625 0.484375 -1.859375 0.359375 -1.859375 C 0.328125 -1.859375 0.328125 -1.859375 0.3125 -1.859375 C 0.390625 -2.078125 0.578125 -2.21875 0.78125 -2.21875 C 1.09375 -2.21875 1.25 -1.9375 1.25 -1.640625 C 1.25 -1.359375 1.078125 -1.09375 0.875 -0.875 L 0.21875 -0.125 C 0.171875 -0.09375 0.171875 -0.078125 0.171875 0 L 1.46875 0 Z M 1.5625 -0.609375 "/>
</g>
<g id="glyph-0-3">
<path d="M 2.515625 -1.203125 C 2.515625 -1.28125 2.453125 -1.28125 2.390625 -1.28125 L 0.3125 -1.28125 C 0.265625 -1.28125 0.1875 -1.28125 0.1875 -1.203125 C 0.1875 -1.140625 0.265625 -1.140625 0.3125 -1.140625 L 2.390625 -1.140625 C 2.453125 -1.140625 2.515625 -1.140625 2.515625 -1.203125 Z M 2.515625 -0.53125 C 2.515625 -0.609375 2.453125 -0.609375 2.390625 -0.609375 L 0.3125 -0.609375 C 0.265625 -0.609375 0.1875 -0.609375 0.1875 -0.53125 C 0.1875 -0.46875 0.265625 -0.46875 0.3125 -0.46875 L 2.390625 -0.46875 C 2.453125 -0.46875 2.515625 -0.46875 2.515625 -0.53125 Z M 2.515625 -0.53125 "/>
</g>
<g id="glyph-1-0">
<path d="M 2.25 -0.84375 C 2.25 -0.875 2.21875 -0.875 2.21875 -0.875 C 2.1875 -0.875 2.171875 -0.859375 2.171875 -0.84375 C 2.140625 -0.734375 2.0625 -0.484375 1.8125 -0.28125 C 1.578125 -0.09375 1.359375 -0.03125 1.171875 -0.03125 C 0.859375 -0.03125 0.484375 -0.21875 0.484375 -0.75 C 0.484375 -0.953125 0.5625 -1.515625 0.90625 -1.921875 C 1.125 -2.171875 1.453125 -2.34375 1.765625 -2.34375 C 2.125 -2.34375 2.328125 -2.078125 2.328125 -1.671875 C 2.328125 -1.53125 2.3125 -1.53125 2.3125 -1.5 C 2.3125 -1.46875 2.359375 -1.46875 2.359375 -1.46875 C 2.40625 -1.46875 2.40625 -1.46875 2.421875 -1.53125 L 2.640625 -2.421875 C 2.640625 -2.4375 2.640625 -2.453125 2.609375 -2.453125 C 2.59375 -2.453125 2.59375 -2.453125 2.5625 -2.421875 L 2.3125 -2.140625 C 2.28125 -2.1875 2.125 -2.453125 1.734375 -2.453125 C 0.953125 -2.453125 0.171875 -1.6875 0.171875 -0.875 C 0.171875 -0.296875 0.578125 0.078125 1.125 0.078125 C 1.421875 0.078125 1.6875 -0.0625 1.875 -0.21875 C 2.1875 -0.515625 2.25 -0.828125 2.25 -0.84375 Z M 2.25 -0.84375 "/>
</g>
<g id="glyph-1-1">
<path d="M 1.734375 -0.5 C 1.734375 -0.53125 1.703125 -0.53125 1.6875 -0.53125 C 1.65625 -0.53125 1.65625 -0.515625 1.640625 -0.46875 C 1.578125 -0.25 1.515625 -0.03125 1.375 -0.03125 C 1.28125 -0.03125 1.28125 -0.125 1.28125 -0.203125 C 1.28125 -0.28125 1.28125 -0.296875 1.328125 -0.453125 L 1.390625 -0.765625 L 1.515625 -1.265625 C 1.546875 -1.359375 1.546875 -1.359375 1.546875 -1.375 C 1.546875 -1.4375 1.5 -1.46875 1.453125 -1.46875 C 1.359375 -1.46875 1.3125 -1.390625 1.296875 -1.3125 C 1.234375 -1.453125 1.140625 -1.546875 0.984375 -1.546875 C 0.578125 -1.546875 0.140625 -1.03125 0.140625 -0.515625 C 0.140625 -0.1875 0.328125 0.03125 0.609375 0.03125 C 0.671875 0.03125 0.84375 0.03125 1.0625 -0.21875 C 1.078125 -0.078125 1.203125 0.03125 1.375 0.03125 C 1.5 0.03125 1.578125 -0.046875 1.625 -0.15625 C 1.6875 -0.28125 1.734375 -0.5 1.734375 -0.5 Z M 1.25 -1.09375 L 1.078125 -0.421875 C 1.0625 -0.359375 1.0625 -0.34375 1 -0.28125 C 0.84375 -0.09375 0.703125 -0.03125 0.609375 -0.03125 C 0.4375 -0.03125 0.390625 -0.234375 0.390625 -0.359375 C 0.390625 -0.546875 0.5 -0.96875 0.578125 -1.125 C 0.6875 -1.328125 0.84375 -1.46875 0.984375 -1.46875 C 1.203125 -1.46875 1.265625 -1.171875 1.265625 -1.15625 C 1.265625 -1.140625 1.25 -1.109375 1.25 -1.09375 Z M 1.25 -1.09375 "/>
</g>
<g id="glyph-1-2">
<path d="M 3.0625 -0.0625 C 3.0625 -0.109375 3.03125 -0.109375 2.96875 -0.109375 C 2.84375 -0.109375 2.75 -0.109375 2.75 -0.171875 C 2.75 -0.1875 2.75 -0.1875 2.765625 -0.25 L 3.234375 -2.109375 C 3.265625 -2.234375 3.265625 -2.265625 3.53125 -2.265625 C 3.609375 -2.265625 3.640625 -2.265625 3.640625 -2.34375 C 3.640625 -2.375 3.609375 -2.375 3.546875 -2.375 L 3.078125 -2.375 C 3 -2.375 2.984375 -2.375 2.953125 -2.3125 L 1.671875 -0.328125 L 1.40625 -2.296875 C 1.390625 -2.375 1.390625 -2.375 1.296875 -2.375 L 0.8125 -2.375 C 0.75 -2.375 0.71875 -2.375 0.71875 -2.3125 C 0.71875 -2.265625 0.75 -2.265625 0.8125 -2.265625 C 0.859375 -2.265625 0.921875 -2.265625 0.96875 -2.265625 C 1.015625 -2.265625 1.046875 -2.25 1.046875 -2.203125 C 1.046875 -2.1875 1.03125 -2.1875 1.03125 -2.140625 L 0.578125 -0.375 C 0.546875 -0.234375 0.484375 -0.125 0.203125 -0.109375 C 0.1875 -0.109375 0.140625 -0.109375 0.140625 -0.046875 C 0.140625 -0.015625 0.171875 0 0.1875 0 C 0.3125 0 0.421875 -0.015625 0.546875 -0.015625 C 0.65625 -0.015625 0.78125 0 0.90625 0 C 0.921875 0 0.96875 0 0.96875 -0.0625 C 0.96875 -0.109375 0.921875 -0.109375 0.90625 -0.109375 C 0.703125 -0.109375 0.671875 -0.1875 0.671875 -0.265625 C 0.671875 -0.28125 0.671875 -0.296875 0.671875 -0.34375 L 1.15625 -2.234375 L 1.453125 -0.078125 C 1.46875 -0.03125 1.46875 0 1.515625 0 C 1.546875 0 1.5625 -0.03125 1.578125 -0.0625 L 3 -2.265625 L 2.5 -0.265625 C 2.46875 -0.140625 2.453125 -0.109375 2.1875 -0.109375 C 2.125 -0.109375 2.078125 -0.109375 2.078125 -0.046875 C 2.078125 0 2.125 0 2.140625 0 L 2.5625 -0.015625 C 2.703125 -0.015625 2.859375 0 3 0 C 3.03125 0 3.0625 0 3.0625 -0.0625 Z M 3.0625 -0.0625 "/>
</g>
<g id="glyph-1-3">
<path d="M 1.734375 -0.5 C 1.734375 -0.53125 1.703125 -0.53125 1.6875 -0.53125 C 1.65625 -0.53125 1.640625 -0.515625 1.640625 -0.5 C 1.53125 -0.125 1.296875 -0.03125 1.171875 -0.03125 C 1.046875 -0.03125 0.984375 -0.15625 0.984375 -0.265625 C 0.984375 -0.34375 1 -0.421875 1.046875 -0.578125 L 1.15625 -1.046875 C 1.1875 -1.140625 1.265625 -1.46875 1.515625 -1.46875 C 1.53125 -1.46875 1.609375 -1.46875 1.6875 -1.421875 C 1.578125 -1.40625 1.515625 -1.3125 1.515625 -1.234375 C 1.515625 -1.171875 1.546875 -1.109375 1.640625 -1.109375 C 1.71875 -1.109375 1.84375 -1.171875 1.84375 -1.3125 C 1.84375 -1.484375 1.625 -1.546875 1.515625 -1.546875 C 1.3125 -1.546875 1.1875 -1.359375 1.140625 -1.28125 C 1.0625 -1.5 0.875 -1.546875 0.765625 -1.546875 C 0.40625 -1.546875 0.203125 -1.09375 0.203125 -1 C 0.203125 -0.96875 0.25 -0.96875 0.25 -0.96875 C 0.28125 -0.96875 0.296875 -0.96875 0.296875 -1 C 0.421875 -1.375 0.640625 -1.46875 0.765625 -1.46875 C 0.828125 -1.46875 0.953125 -1.4375 0.953125 -1.234375 C 0.953125 -1.125 0.890625 -0.890625 0.765625 -0.40625 C 0.703125 -0.1875 0.578125 -0.03125 0.4375 -0.03125 C 0.40625 -0.03125 0.328125 -0.03125 0.265625 -0.078125 C 0.34375 -0.09375 0.421875 -0.171875 0.421875 -0.265625 C 0.421875 -0.359375 0.34375 -0.390625 0.296875 -0.390625 C 0.1875 -0.390625 0.09375 -0.296875 0.09375 -0.1875 C 0.09375 -0.03125 0.28125 0.03125 0.421875 0.03125 C 0.65625 0.03125 0.78125 -0.203125 0.796875 -0.21875 C 0.84375 -0.09375 0.96875 0.03125 1.171875 0.03125 C 1.53125 0.03125 1.734375 -0.40625 1.734375 -0.5 Z M 1.734375 -0.5 "/>
</g>
<g id="glyph-1-4">
<path d="M 0.703125 0 C 0.703125 -0.234375 0.625 -0.375 0.484375 -0.375 C 0.375 -0.375 0.296875 -0.28125 0.296875 -0.1875 C 0.296875 -0.09375 0.375 0 0.484375 0 C 0.53125 0 0.578125 -0.015625 0.609375 -0.046875 C 0.609375 -0.046875 0.625 -0.0625 0.625 -0.0625 C 0.625 -0.0625 0.625 -0.046875 0.625 0 C 0.625 0.25 0.515625 0.46875 0.390625 0.578125 C 0.359375 0.609375 0.359375 0.625 0.359375 0.640625 C 0.359375 0.65625 0.375 0.671875 0.390625 0.671875 C 0.421875 0.671875 0.703125 0.40625 0.703125 0 Z M 0.703125 0 "/>
</g>
<g id="glyph-1-5">
<path d="M 1.921875 -2.21875 C 1.921875 -2.375 1.765625 -2.453125 1.625 -2.453125 C 1.5 -2.453125 1.28125 -2.390625 1.171875 -2.046875 C 1.15625 -1.96875 1.140625 -1.9375 1.0625 -1.5 L 0.828125 -1.5 C 0.75 -1.5 0.71875 -1.5 0.71875 -1.4375 C 0.71875 -1.390625 0.75 -1.390625 0.8125 -1.390625 L 1.046875 -1.390625 L 0.78125 -0.015625 C 0.71875 0.328125 0.65625 0.640625 0.484375 0.640625 C 0.46875 0.640625 0.375 0.640625 0.3125 0.578125 C 0.46875 0.5625 0.5 0.4375 0.5 0.390625 C 0.5 0.3125 0.4375 0.265625 0.375 0.265625 C 0.28125 0.265625 0.1875 0.34375 0.1875 0.46875 C 0.1875 0.625 0.34375 0.71875 0.484375 0.71875 C 0.671875 0.71875 0.8125 0.515625 0.875 0.375 C 0.984375 0.15625 1.0625 -0.265625 1.0625 -0.296875 L 1.28125 -1.390625 L 1.578125 -1.390625 C 1.640625 -1.390625 1.6875 -1.390625 1.6875 -1.46875 C 1.6875 -1.5 1.640625 -1.5 1.59375 -1.5 L 1.296875 -1.5 C 1.34375 -1.703125 1.328125 -1.703125 1.375 -1.90625 C 1.390625 -1.96875 1.4375 -2.21875 1.453125 -2.265625 C 1.484375 -2.328125 1.546875 -2.375 1.625 -2.375 C 1.640625 -2.375 1.71875 -2.375 1.796875 -2.3125 C 1.640625 -2.296875 1.609375 -2.1875 1.609375 -2.125 C 1.609375 -2.046875 1.671875 -2 1.734375 -2 C 1.828125 -2 1.921875 -2.078125 1.921875 -2.21875 Z M 1.921875 -2.21875 "/>
</g>
<g id="glyph-2-0">
<path d="M 1.75 -1.109375 L 1.75 0 L 1.515625 0 L 1.515625 -1.046875 C 1.515625 -1.066406 1.5 -1.085938 1.46875 -1.109375 C 1.445312 -1.128906 1.410156 -1.148438 1.359375 -1.171875 C 1.265625 -1.210938 1.160156 -1.234375 1.046875 -1.234375 C 0.921875 -1.234375 0.816406 -1.210938 0.734375 -1.171875 C 0.679688 -1.140625 0.644531 -1.113281 0.625 -1.09375 C 0.601562 -1.082031 0.59375 -1.066406 0.59375 -1.046875 L 0.59375 0 L 0.34375 0 L 0.34375 -1.109375 C 0.34375 -1.191406 0.410156 -1.269531 0.546875 -1.34375 C 0.691406 -1.425781 0.859375 -1.46875 1.046875 -1.46875 C 1.265625 -1.46875 1.441406 -1.421875 1.578125 -1.328125 C 1.691406 -1.253906 1.75 -1.179688 1.75 -1.109375 Z M 1.59375 -1.65625 C 1.550781 -1.6875 1.488281 -1.742188 1.40625 -1.828125 L 1.09375 -1.5625 C 0.976562 -1.601562 0.835938 -1.6875 0.671875 -1.8125 L 0.515625 -1.65625 C 0.535156 -1.632812 0.5625 -1.613281 0.59375 -1.59375 C 0.601562 -1.582031 0.617188 -1.578125 0.640625 -1.578125 C 0.660156 -1.566406 0.679688 -1.5625 0.703125 -1.5625 L 0.546875 -1.40625 C 0.484375 -1.414062 0.421875 -1.441406 0.359375 -1.484375 C 0.304688 -1.535156 0.265625 -1.59375 0.234375 -1.65625 L 0.671875 -2.125 C 0.859375 -1.945312 1 -1.847656 1.09375 -1.828125 L 1.46875 -2.125 C 1.476562 -2.113281 1.519531 -2.078125 1.59375 -2.015625 C 1.664062 -1.953125 1.734375 -1.898438 1.796875 -1.859375 C 1.867188 -1.816406 1.929688 -1.789062 1.984375 -1.78125 C 1.972656 -1.726562 1.953125 -1.679688 1.921875 -1.640625 C 1.890625 -1.609375 1.859375 -1.582031 1.828125 -1.5625 C 1.742188 -1.5625 1.664062 -1.59375 1.59375 -1.65625 Z M 1.59375 -1.65625 "/>
</g>
<g id="glyph-2-1">
<path d="M 0.875 -1.40625 L 0.875 0.078125 C 0.875 0.0976562 0.878906 0.109375 0.890625 0.109375 C 0.898438 0.109375 0.914062 0.101562 0.9375 0.09375 C 0.957031 0.0820312 0.988281 0.0664062 1.03125 0.046875 C 1.070312 0.0234375 1.109375 0.00390625 1.140625 -0.015625 L 1.21875 0.109375 C 1.070312 0.234375 0.957031 0.3125 0.875 0.34375 L 0.875 0.734375 C 0.875 0.898438 0.816406 1.019531 0.703125 1.09375 C 0.597656 1.175781 0.4375 1.21875 0.21875 1.21875 C -0.214844 1.21875 -0.4375 1.097656 -0.4375 0.859375 L -0.4375 0.421875 C -0.4375 0.390625 -0.445312 0.375 -0.46875 0.375 C -0.476562 0.375 -0.488281 0.375 -0.5 0.375 C -0.5 0.375 -0.507812 0.394531 -0.53125 0.4375 L -0.53125 0.453125 C -0.53125 0.460938 -0.519531 0.484375 -0.5 0.515625 C -0.46875 0.566406 -0.453125 0.601562 -0.453125 0.625 C -0.453125 0.632812 -0.453125 0.640625 -0.453125 0.640625 C -0.453125 0.660156 -0.457031 0.679688 -0.46875 0.703125 C -0.476562 0.722656 -0.492188 0.734375 -0.515625 0.734375 C -0.523438 0.742188 -0.535156 0.75 -0.546875 0.75 C -0.660156 0.75 -0.722656 0.675781 -0.734375 0.53125 L -0.734375 0.5 C -0.734375 0.457031 -0.726562 0.421875 -0.71875 0.390625 C -0.695312 0.347656 -0.675781 0.3125 -0.65625 0.28125 C -0.625 0.25 -0.59375 0.222656 -0.5625 0.203125 C -0.519531 0.179688 -0.472656 0.171875 -0.421875 0.171875 L -0.3125 0.171875 C -0.257812 0.171875 -0.226562 0.1875 -0.21875 0.21875 C -0.207031 0.238281 -0.191406 0.265625 -0.171875 0.296875 L -0.171875 0.796875 C -0.171875 0.941406 -0.0429688 1.015625 0.203125 1.015625 C 0.484375 1.015625 0.625 0.9375 0.625 0.78125 L 0.625 0.359375 C 0.5625 0.359375 0.484375 0.335938 0.390625 0.296875 C 0.296875 0.242188 0.238281 0.203125 0.21875 0.171875 C 0.195312 0.140625 0.1875 0.113281 0.1875 0.09375 C 0.1875 0.0703125 0.195312 0.0507812 0.21875 0.03125 C 0.226562 0 0.242188 -0.0195312 0.265625 -0.03125 C 0.285156 -0.0507812 0.304688 -0.0625 0.328125 -0.0625 C 0.359375 -0.0703125 0.382812 -0.078125 0.40625 -0.078125 C 0.5 0.00390625 0.570312 0.0507812 0.625 0.0625 L 0.625 -1.234375 C 0.625 -1.316406 0.582031 -1.363281 0.5 -1.375 C 0.46875 -1.382812 0.441406 -1.390625 0.421875 -1.390625 C 0.378906 -1.390625 0.34375 -1.382812 0.3125 -1.375 C 0.300781 -1.375 0.289062 -1.375 0.28125 -1.375 C 0.21875 -1.375 0.179688 -1.410156 0.171875 -1.484375 C 0.171875 -1.546875 0.203125 -1.632812 0.265625 -1.75 C 0.273438 -1.78125 0.296875 -1.8125 0.328125 -1.84375 C 0.347656 -1.882812 0.378906 -1.929688 0.421875 -1.984375 C 0.453125 -2.023438 0.484375 -2.054688 0.515625 -2.078125 C 0.546875 -2.109375 0.578125 -2.125 0.609375 -2.125 C 0.648438 -2.125 0.707031 -2.097656 0.78125 -2.046875 C 0.875 -1.992188 0.929688 -1.96875 0.953125 -1.96875 C 0.960938 -1.957031 0.972656 -1.953125 0.984375 -1.953125 C 1.003906 -1.941406 1.019531 -1.9375 1.03125 -1.9375 C 1.03125 -1.863281 1.007812 -1.800781 0.96875 -1.75 C 0.9375 -1.71875 0.898438 -1.703125 0.859375 -1.703125 C 0.816406 -1.703125 0.769531 -1.71875 0.71875 -1.75 C 0.675781 -1.78125 0.644531 -1.796875 0.625 -1.796875 C 0.53125 -1.796875 0.472656 -1.726562 0.453125 -1.59375 C 0.460938 -1.59375 0.472656 -1.597656 0.484375 -1.609375 L 0.53125 -1.609375 C 0.613281 -1.609375 0.691406 -1.585938 0.765625 -1.546875 C 0.835938 -1.515625 0.875 -1.46875 0.875 -1.40625 Z M 0.875 -1.40625 "/>
</g>
<g id="glyph-2-2">
<path d="M 1.703125 -0.953125 L 1.703125 -1.21875 C 1.628906 -1.21875 1.582031 -1.171875 1.5625 -1.078125 L 1.5625 -1.046875 C 1.5625 -1.023438 1.566406 -1.007812 1.578125 -1 C 1.585938 -0.976562 1.601562 -0.96875 1.625 -0.96875 C 1.632812 -0.957031 1.648438 -0.953125 1.671875 -0.953125 C 1.679688 -0.953125 1.691406 -0.953125 1.703125 -0.953125 Z M 0.546875 -0.25 L 0.546875 -0.546875 C 0.460938 -0.523438 0.421875 -0.476562 0.421875 -0.40625 L 0.421875 -0.375 C 0.421875 -0.351562 0.429688 -0.328125 0.453125 -0.296875 C 0.472656 -0.265625 0.5 -0.25 0.53125 -0.25 Z M 1.53125 -2.125 C 1.539062 -2.113281 1.5625 -2.09375 1.59375 -2.0625 C 1.632812 -2.03125 1.675781 -1.992188 1.71875 -1.953125 C 1.769531 -1.921875 1.816406 -1.890625 1.859375 -1.859375 C 1.929688 -1.816406 2 -1.789062 2.0625 -1.78125 C 2.050781 -1.726562 2.03125 -1.679688 2 -1.640625 C 1.96875 -1.609375 1.9375 -1.582031 1.90625 -1.5625 C 1.820312 -1.5625 1.742188 -1.59375 1.671875 -1.65625 C 1.617188 -1.6875 1.550781 -1.742188 1.46875 -1.828125 L 1.15625 -1.5625 C 1.039062 -1.601562 0.898438 -1.6875 0.734375 -1.8125 L 0.59375 -1.65625 C 0.6875 -1.625 0.75 -1.566406 0.78125 -1.484375 L 0.78125 -0.78125 C 0.800781 -0.78125 0.828125 -0.785156 0.859375 -0.796875 C 0.878906 -0.796875 0.910156 -0.789062 0.953125 -0.78125 C 0.984375 -0.78125 1.019531 -0.773438 1.0625 -0.765625 C 1.09375 -0.753906 1.132812 -0.734375 1.1875 -0.703125 C 1.21875 -0.671875 1.265625 -0.601562 1.328125 -0.5 C 1.359375 -0.457031 1.382812 -0.421875 1.40625 -0.390625 C 1.414062 -0.347656 1.4375 -0.316406 1.46875 -0.296875 C 1.488281 -0.273438 1.507812 -0.265625 1.53125 -0.265625 C 1.539062 -0.253906 1.550781 -0.25 1.5625 -0.25 L 1.59375 -0.25 C 1.601562 -0.25 1.613281 -0.253906 1.625 -0.265625 C 1.675781 -0.273438 1.703125 -0.300781 1.703125 -0.34375 L 1.703125 -0.75 L 1.671875 -0.75 C 1.460938 -0.75 1.359375 -0.859375 1.359375 -1.078125 C 1.359375 -1.148438 1.382812 -1.222656 1.4375 -1.296875 C 1.5 -1.367188 1.585938 -1.40625 1.703125 -1.40625 L 1.859375 -1.40625 C 1.921875 -1.40625 1.953125 -1.378906 1.953125 -1.328125 L 1.953125 -0.21875 C 1.953125 -0.144531 1.925781 -0.09375 1.875 -0.0625 C 1.832031 -0.0195312 1.789062 0 1.75 0 L 1.5625 0 C 1.488281 0 1.414062 -0.0195312 1.34375 -0.0625 C 1.269531 -0.101562 1.207031 -0.179688 1.15625 -0.296875 C 1.113281 -0.410156 1.066406 -0.476562 1.015625 -0.5 C 0.972656 -0.53125 0.925781 -0.546875 0.875 -0.546875 C 0.84375 -0.546875 0.8125 -0.546875 0.78125 -0.546875 L 0.78125 0 L 0.546875 0 C 0.296875 -0.0390625 0.171875 -0.1875 0.171875 -0.4375 C 0.210938 -0.632812 0.335938 -0.75 0.546875 -0.78125 L 0.546875 -1.375 C 0.546875 -1.4375 0.472656 -1.472656 0.328125 -1.484375 C 0.296875 -1.484375 0.28125 -1.507812 0.28125 -1.5625 C 0.28125 -1.582031 0.285156 -1.613281 0.296875 -1.65625 L 0.734375 -2.125 C 0.921875 -1.945312 1.066406 -1.847656 1.171875 -1.828125 Z M 1.53125 -2.125 "/>
</g>
<g id="glyph-2-3">
<path d="M 0.03125 0.421875 C 0.03125 0.890625 -0.109375 1.132812 -0.390625 1.15625 C -0.492188 1.15625 -0.566406 1.117188 -0.609375 1.046875 C -0.640625 1.003906 -0.671875 0.921875 -0.703125 0.796875 C -0.734375 0.671875 -0.753906 0.597656 -0.765625 0.578125 C -0.796875 0.523438 -0.851562 0.5 -0.9375 0.5 L -0.953125 0.5 C -1.171875 0.519531 -1.285156 0.609375 -1.296875 0.765625 C -1.296875 0.785156 -1.289062 0.8125 -1.28125 0.84375 C -1.269531 0.863281 -1.253906 0.882812 -1.234375 0.90625 C -1.210938 0.925781 -1.191406 0.941406 -1.171875 0.953125 C -1.148438 0.960938 -1.125 0.96875 -1.09375 0.96875 C -1.039062 0.96875 -1.015625 0.9375 -1.015625 0.875 C -1.015625 0.832031 -1.046875 0.8125 -1.109375 0.8125 C -1.148438 0.8125 -1.179688 0.816406 -1.203125 0.828125 C -1.210938 0.816406 -1.21875 0.789062 -1.21875 0.75 C -1.21875 0.65625 -1.171875 0.609375 -1.078125 0.609375 C -1.066406 0.609375 -1.054688 0.609375 -1.046875 0.609375 C -0.910156 0.628906 -0.835938 0.710938 -0.828125 0.859375 C -0.828125 0.941406 -0.851562 1.007812 -0.90625 1.0625 C -0.96875 1.125 -1.039062 1.15625 -1.125 1.15625 C -1.226562 1.15625 -1.316406 1.117188 -1.390625 1.046875 C -1.460938 0.960938 -1.5 0.875 -1.5 0.78125 C -1.5 0.632812 -1.445312 0.515625 -1.34375 0.421875 C -1.238281 0.335938 -1.101562 0.296875 -0.9375 0.296875 C -0.875 0.296875 -0.816406 0.300781 -0.765625 0.3125 C -0.710938 0.320312 -0.671875 0.34375 -0.640625 0.375 C -0.597656 0.40625 -0.566406 0.453125 -0.546875 0.515625 C -0.515625 0.566406 -0.492188 0.632812 -0.484375 0.71875 C -0.472656 0.863281 -0.4375 0.9375 -0.375 0.9375 C -0.238281 0.9375 -0.171875 0.753906 -0.171875 0.390625 C -0.171875 0.328125 -0.132812 0.296875 -0.0625 0.296875 C -0.0078125 0.296875 0.0195312 0.335938 0.03125 0.421875 Z M 0.03125 0.421875 "/>
</g>
<g id="glyph-2-4">
<path d="M -0.25 2.28125 C -0.25 2.3125 -0.285156 2.328125 -0.359375 2.328125 C -0.421875 2.328125 -0.457031 2.3125 -0.46875 2.28125 L -0.46875 1.703125 C -0.46875 1.671875 -0.488281 1.644531 -0.53125 1.625 C -0.5625 1.601562 -0.578125 1.585938 -0.578125 1.578125 C -0.578125 1.472656 -0.515625 1.421875 -0.390625 1.421875 C -0.378906 1.421875 -0.363281 1.425781 -0.34375 1.4375 C -0.320312 1.445312 -0.304688 1.460938 -0.296875 1.484375 C -0.273438 1.492188 -0.257812 1.507812 -0.25 1.53125 C -0.25 1.550781 -0.25 1.566406 -0.25 1.578125 Z M -0.25 2.28125 "/>
</g>
<g id="glyph-2-5">
<path d="M 1.234375 -1.765625 C 1.234375 -1.648438 1.195312 -1.554688 1.125 -1.484375 C 1.050781 -1.410156 0.960938 -1.375 0.859375 -1.375 C 0.742188 -1.375 0.648438 -1.410156 0.578125 -1.484375 C 0.492188 -1.554688 0.453125 -1.648438 0.453125 -1.765625 C 0.453125 -1.867188 0.492188 -1.957031 0.578125 -2.03125 C 0.648438 -2.113281 0.742188 -2.15625 0.859375 -2.15625 C 0.960938 -2.15625 1.050781 -2.113281 1.125 -2.03125 C 1.195312 -1.957031 1.234375 -1.867188 1.234375 -1.765625 Z M 1.046875 -1.78125 C 1.046875 -1.90625 0.976562 -1.96875 0.84375 -1.96875 C 0.71875 -1.96875 0.65625 -1.898438 0.65625 -1.765625 C 0.65625 -1.640625 0.722656 -1.578125 0.859375 -1.578125 C 0.984375 -1.578125 1.046875 -1.644531 1.046875 -1.78125 Z M 1.234375 -0.5 C 1.234375 -0.382812 1.195312 -0.289062 1.125 -0.21875 C 1.050781 -0.132812 0.960938 -0.09375 0.859375 -0.09375 C 0.742188 -0.09375 0.648438 -0.132812 0.578125 -0.21875 C 0.492188 -0.289062 0.453125 -0.382812 0.453125 -0.5 C 0.453125 -0.601562 0.492188 -0.691406 0.578125 -0.765625 C 0.648438 -0.847656 0.742188 -0.890625 0.859375 -0.890625 C 0.960938 -0.890625 1.050781 -0.847656 1.125 -0.765625 C 1.195312 -0.691406 1.234375 -0.601562 1.234375 -0.5 Z M 1.046875 -0.515625 C 1.046875 -0.628906 0.976562 -0.6875 0.84375 -0.6875 C 0.71875 -0.6875 0.65625 -0.625 0.65625 -0.5 C 0.65625 -0.375 0.722656 -0.3125 0.859375 -0.3125 C 0.984375 -0.3125 1.046875 -0.378906 1.046875 -0.515625 Z M 1.046875 -0.515625 "/>
</g>
<g id="glyph-3-0">
<path d="M 2.421875 -0.875 C 2.421875 -0.9375 2.359375 -0.9375 2.296875 -0.9375 L 0.40625 -0.9375 C 0.359375 -0.9375 0.296875 -0.9375 0.296875 -0.875 C 0.296875 -0.796875 0.359375 -0.796875 0.40625 -0.796875 L 2.296875 -0.796875 C 2.359375 -0.796875 2.421875 -0.796875 2.421875 -0.875 Z M 2.421875 -0.875 "/>
</g>
</g>
<clipPath id="clip-0">
<path clip-rule="nonzero" d="M 21 2.96875 L 62 2.96875 L 62 55 L 21 55 Z M 21 2.96875 "/>
</clipPath>
<clipPath id="clip-1">
<path clip-rule="nonzero" d="M 33 2.96875 L 39 2.96875 L 39 4 L 33 4 Z M 33 2.96875 "/>
</clipPath>
<clipPath id="clip-2">
<path clip-rule="nonzero" d="M 36 2.96875 L 39 2.96875 L 39 4 L 36 4 Z M 36 2.96875 "/>
</clipPath>
<clipPath id="clip-3">
<path clip-rule="nonzero" d="M 38 2.96875 L 41 2.96875 L 41 5 L 38 5 Z M 38 2.96875 "/>
</clipPath>
<clipPath id="clip-4">
<path clip-rule="nonzero" d="M 41 2.96875 L 43 2.96875 L 43 3 L 41 3 Z M 41 2.96875 "/>
</clipPath>
<clipPath id="clip-5">
<path clip-rule="nonzero" d="M 51 2.96875 L 53 2.96875 L 53 3 L 51 3 Z M 51 2.96875 "/>
</clipPath>
<clipPath id="clip-6">
<path clip-rule="nonzero" d="M 2.300781 27 L 3 27 L 3 31 L 2.300781 31 Z M 2.300781 27 "/>
</clipPath>
<clipPath id="clip-7">
<path clip-rule="nonzero" d="M 2.300781 27 L 4 27 L 4 31 L 2.300781 31 Z M 2.300781 27 "/>
</clipPath>
</defs>
<path fill="none" stroke-width="0.3985" stroke-linecap="butt" stroke-linejoin="miter" stroke="rgb(0%, 0%, 0%)" stroke-opacity="1" stroke-miterlimit="10" d="M -0.001625 17.937339 L 192.275161 17.937339 " transform="matrix(0.35, 0, 0, -0.35, 2.30135, 59.45385)"/>
<path fill-rule="nonzero" fill="rgb(0%, 0%, 0%)" fill-opacity="1" d="M 70.296875 53.175781 L 69.179688 52.621094 L 69.597656 53.175781 L 69.179688 53.734375 "/>
<path fill="none" stroke-width="0.3985" stroke-linecap="butt" stroke-linejoin="miter" stroke="rgb(0%, 0%, 0%)" stroke-opacity="1" stroke-miterlimit="10" d="M 71.572036 0.00207143 L 71.572036 159.399393 " transform="matrix(0.35, 0, 0, -0.35, 2.30135, 59.45385)"/>
<path fill-rule="nonzero" fill="rgb(0%, 0%, 0%)" fill-opacity="1" d="M 27.351562 2.96875 L 26.792969 4.082031 L 27.351562 3.664062 L 27.910156 4.082031 "/>
<g clip-path="url(#clip-0)">
<path fill="none" stroke-width="1.59404" stroke-linecap="butt" stroke-linejoin="miter" stroke="rgb(0%, 0%, 100%)" stroke-opacity="1" stroke-miterlimit="10" d="M 77.710429 139.511 L 78.413554 135.370375 L 79.116679 131.307875 L 79.819804 127.334661 L 80.522929 123.439571 L 81.214893 119.633768 L 81.918018 115.906089 L 82.621143 112.267696 L 83.324268 108.718589 L 84.027393 105.247607 L 84.730518 101.865911 L 85.433643 98.562339 L 86.136768 95.348054 L 86.839893 92.223054 L 87.543018 89.176179 L 88.246143 86.218589 L 88.949268 83.339125 L 89.652393 80.548946 L 90.355518 77.836893 L 91.047482 75.214125 L 91.750607 72.680643 L 92.453732 70.225286 L 93.156857 67.859214 L 93.859982 65.571268 L 94.563107 63.372607 L 95.266232 61.252071 L 95.969357 59.220821 L 96.672482 57.278857 L 97.375607 55.415018 L 98.078732 53.640464 L 98.781857 51.955196 L 99.484982 50.348054 L 100.188107 48.819036 L 100.880071 47.379304 L 101.583196 46.028857 L 102.286321 44.756536 L 102.989446 43.5735 L 103.692571 42.47975 L 104.395696 41.464125 L 105.098821 40.526625 L 105.801946 39.678411 L 106.505071 38.919482 L 107.208196 38.249839 L 107.911321 37.647161 L 108.614446 37.144929 L 109.317571 36.720821 L 110.009536 36.386 L 110.712661 36.129304 L 111.415786 35.961893 L 112.118911 35.872607 L 112.822036 35.872607 L 113.525161 35.961893 L 114.228286 36.129304 L 114.931411 36.386 L 115.634536 36.720821 L 116.337661 37.144929 L 117.040786 37.647161 L 117.743911 38.238679 L 118.447036 38.919482 L 119.150161 39.678411 L 119.842125 40.526625 L 120.54525 41.452964 L 121.248375 42.468589 L 121.9515 43.5735 L 122.654625 44.756536 L 123.35775 46.028857 L 124.060875 47.379304 L 124.764 48.819036 L 125.467125 50.336893 L 126.17025 51.944036 L 126.873375 53.640464 L 127.5765 55.415018 L 128.279625 57.278857 L 128.971589 59.220821 L 129.674714 61.252071 L 130.377839 63.372607 L 131.080964 65.571268 L 131.784089 67.848054 L 132.487214 70.225286 L 133.190339 72.669482 L 133.893464 75.214125 L 134.596589 77.836893 L 135.299714 80.537786 L 136.002839 83.339125 L 136.705964 86.207429 L 137.409089 89.176179 L 138.112214 92.211893 L 138.804179 95.348054 L 139.507304 98.562339 L 140.210429 101.865911 L 140.913554 105.247607 L 141.616679 108.718589 L 142.319804 112.267696 L 143.022929 115.906089 L 143.726054 119.622607 L 144.429179 123.428411 L 145.132304 127.3235 L 145.835429 131.296714 L 146.538554 135.359214 L 147.241679 139.511 " transform="matrix(0.35, 0, 0, -0.35, 2.30135, 59.45385)"/>
</g>
<g fill="rgb(0%, 0%, 100%)" fill-opacity="1">
<use xlink:href="#glyph-0-0" x="53.44895" y="19.8783"/>
</g>
<g fill="rgb(0%, 0%, 100%)" fill-opacity="1">
<use xlink:href="#glyph-1-0" x="54.80485" y="19.8783"/>
</g>
<g fill="rgb(0%, 0%, 100%)" fill-opacity="1">
<use xlink:href="#glyph-0-1" x="57.5464" y="19.8783"/>
</g>
<path fill="none" stroke-width="1.59404" stroke-linecap="butt" stroke-linejoin="miter" stroke="rgb(100%, 0%, 0%)" stroke-opacity="1" stroke-dasharray="2.98883 2.98883" stroke-miterlimit="10" d="M 112.476054 10.761 L 112.476054 154.220821 " transform="matrix(0.35, 0, 0, -0.35, 2.30135, 59.45385)"/>
<g clip-path="url(#clip-1)">
<g fill="rgb(100%, 0%, 0%)" fill-opacity="1">
<use xlink:href="#glyph-2-0" x="33.267449" y="1.8827"/>
<use xlink:href="#glyph-2-1" x="35.376336" y="1.8827"/>
<use xlink:href="#glyph-2-2" x="36.612379" y="1.8827"/>
</g>
</g>
<g clip-path="url(#clip-2)">
<g fill="rgb(100%, 0%, 0%)" fill-opacity="1">
<use xlink:href="#glyph-2-3" x="38.404933" y="1.8827"/>
</g>
</g>
<g clip-path="url(#clip-3)">
<g fill="rgb(100%, 0%, 0%)" fill-opacity="1">
<use xlink:href="#glyph-2-4" x="38.861858" y="1.8827"/>
<use xlink:href="#glyph-2-5" x="38.861858" y="1.8827"/>
</g>
</g>
<g clip-path="url(#clip-4)">
<g fill="rgb(100%, 0%, 0%)" fill-opacity="1">
<use xlink:href="#glyph-0-0" x="41.2966" y="1.8827"/>
</g>
</g>
<g clip-path="url(#clip-5)">
<g fill="rgb(100%, 0%, 0%)" fill-opacity="1">
<use xlink:href="#glyph-0-1" x="51.1379" y="1.8827"/>
</g>
</g>
<g fill="rgb(0%, 0%, 0%)" fill-opacity="1">
<use xlink:href="#glyph-1-1" x="40.74535" y="57.6076"/>
</g>
<path fill-rule="nonzero" fill="rgb(0%, 0%, 0%)" fill-opacity="1" d="M 50.898438 28.824219 C 50.898438 28.472656 50.609375 28.183594 50.257812 28.183594 C 49.902344 28.183594 49.613281 28.472656 49.613281 28.824219 C 49.613281 29.179688 49.902344 29.464844 50.257812 29.464844 C 50.609375 29.464844 50.898438 29.179688 50.898438 28.824219 Z M 50.898438 28.824219 "/>
<g fill="rgb(0%, 0%, 0%)" fill-opacity="1">
<use xlink:href="#glyph-1-2" x="51.80465" y="26.4051"/>
</g>
<g fill="rgb(0%, 0%, 0%)" fill-opacity="1">
<use xlink:href="#glyph-0-0" x="55.5675" y="26.4051"/>
</g>
<g fill="rgb(0%, 0%, 0%)" fill-opacity="1">
<use xlink:href="#glyph-1-3" x="56.9234" y="26.4051"/>
<use xlink:href="#glyph-1-4" x="58.916169" y="26.4051"/>
</g>
<g fill="rgb(0%, 0%, 0%)" fill-opacity="1">
<use xlink:href="#glyph-1-5" x="60.46366" y="26.4051"/>
</g>
<g fill="rgb(0%, 0%, 0%)" fill-opacity="1">
<use xlink:href="#glyph-0-0" x="62.5486" y="26.4051"/>
</g>
<g fill="rgb(0%, 0%, 0%)" fill-opacity="1">
<use xlink:href="#glyph-1-3" x="63.90485" y="26.4051"/>
</g>
<g fill="rgb(0%, 0%, 0%)" fill-opacity="1">
<use xlink:href="#glyph-0-1" x="65.89775" y="26.4051"/>
<use xlink:href="#glyph-0-1" x="67.253809" y="26.4051"/>
</g>
<path fill="none" stroke-width="0.3985" stroke-linecap="butt" stroke-linejoin="miter" stroke="rgb(50%, 50%, 50%)" stroke-opacity="1" stroke-dasharray="2.98883 2.98883" stroke-miterlimit="10" d="M 137.018464 87.513232 L 137.018464 17.937339 " transform="matrix(0.35, 0, 0, -0.35, 2.30135, 59.45385)"/>
<g fill="rgb(0%, 0%, 0%)" fill-opacity="1">
<use xlink:href="#glyph-1-3" x="49.25945" y="55.72495"/>
</g>
<path fill-rule="nonzero" fill="rgb(0%, 0%, 0%)" fill-opacity="1" d="M 33.71875 28.824219 C 33.71875 28.472656 33.433594 28.183594 33.078125 28.183594 C 32.722656 28.183594 32.4375 28.472656 32.4375 28.824219 C 32.4375 29.179688 32.722656 29.464844 33.078125 29.464844 C 33.433594 29.464844 33.71875 29.179688 33.71875 28.824219 Z M 33.71875 28.824219 "/>
<path fill="none" stroke-width="0.3985" stroke-linecap="butt" stroke-linejoin="miter" stroke="rgb(50%, 50%, 50%)" stroke-opacity="1" stroke-dasharray="2.98883 2.98883" stroke-miterlimit="10" d="M 87.933643 87.513232 L 87.933643 17.937339 " transform="matrix(0.35, 0, 0, -0.35, 2.30135, 59.45385)"/>
<g fill="rgb(0%, 0%, 0%)" fill-opacity="1">
<use xlink:href="#glyph-0-2" x="28.1576" y="56.41935"/>
</g>
<g fill="rgb(0%, 0%, 0%)" fill-opacity="1">
<use xlink:href="#glyph-1-1" x="29.90095" y="56.41935"/>
</g>
<g fill="rgb(0%, 0%, 0%)" fill-opacity="1">
<use xlink:href="#glyph-3-0" x="32.51895" y="56.41935"/>
</g>
<g fill="rgb(0%, 0%, 0%)" fill-opacity="1">
<use xlink:href="#glyph-1-3" x="36.006" y="56.41935"/>
</g>
<path fill="none" stroke-width="0.79701" stroke-linecap="butt" stroke-linejoin="miter" stroke="rgb(75%, 0%, 25%)" stroke-opacity="1" stroke-dasharray="0.79701 1.99255" stroke-miterlimit="10" d="M 87.933643 87.513232 L 137.018464 87.513232 " transform="matrix(0.35, 0, 0, -0.35, 2.30135, 59.45385)"/>
<path fill="none" stroke-width="0.3985" stroke-linecap="butt" stroke-linejoin="miter" stroke="rgb(50%, 50%, 50%)" stroke-opacity="1" stroke-dasharray="2.98883 2.98883" stroke-miterlimit="10" d="M 87.933643 87.513232 L 71.572036 87.513232 " transform="matrix(0.35, 0, 0, -0.35, 2.30135, 59.45385)"/>
<g clip-path="url(#clip-6)">
<g fill="rgb(0%, 0%, 0%)" fill-opacity="1">
<use xlink:href="#glyph-1-5" x="0.2332" y="29.6972"/>
</g>
</g>
<g clip-path="url(#clip-7)">
<g fill="rgb(0%, 0%, 0%)" fill-opacity="1">
<use xlink:href="#glyph-0-0" x="2.3157" y="29.6972"/>
</g>
</g>
<g fill="rgb(0%, 0%, 0%)" fill-opacity="1">
<use xlink:href="#glyph-1-3" x="3.6716" y="29.6972"/>
</g>
<g fill="rgb(0%, 0%, 0%)" fill-opacity="1">
<use xlink:href="#glyph-0-1" x="5.6645" y="29.6972"/>
</g>
<g fill="rgb(0%, 0%, 0%)" fill-opacity="1">
<use xlink:href="#glyph-0-3" x="7.986433" y="29.6972"/>
</g>
<g fill="rgb(0%, 0%, 0%)" fill-opacity="1">
<use xlink:href="#glyph-1-5" x="11.6698" y="29.6972"/>
</g>
<g fill="rgb(0%, 0%, 0%)" fill-opacity="1">
<use xlink:href="#glyph-0-0" x="13.7523" y="29.6972"/>
<use xlink:href="#glyph-0-2" x="15.108359" y="29.6972"/>
</g>
<g fill="rgb(0%, 0%, 0%)" fill-opacity="1">
<use xlink:href="#glyph-1-1" x="16.8519" y="29.6972"/>
</g>
<g fill="rgb(0%, 0%, 0%)" fill-opacity="1">
<use xlink:href="#glyph-3-0" x="19.4699" y="29.6972"/>
</g>
<g fill="rgb(0%, 0%, 0%)" fill-opacity="1">
<use xlink:href="#glyph-1-3" x="22.95695" y="29.6972"/>
</g>
<g fill="rgb(0%, 0%, 0%)" fill-opacity="1">
<use xlink:href="#glyph-0-1" x="24.9495" y="29.6972"/>
</g>
</svg>
