<?xml version="1.0" encoding="UTF-8"?>
<svg xmlns="http://www.w3.org/2000/svg" xmlns:xlink="http://www.w3.org/1999/xlink" width="221pt" height="52pt" viewBox="0 0 221 52">
<defs>
<g>
<g id="glyph-0-0">
<path d="M 9.6875 -4.640625 C 9.890625 -4.640625 10.140625 -4.640625 10.140625 -4.90625 C 10.140625 -5.171875 9.890625 -5.171875 9.6875 -5.171875 L 1.234375 -5.171875 C 1.03125 -5.171875 0.78125 -5.171875 0.78125 -4.921875 C 0.78125 -4.640625 1.015625 -4.640625 1.234375 -4.640625 Z M 9.6875 -1.984375 C 9.890625 -1.984375 10.140625 -1.984375 10.140625 -2.234375 C 10.140625 -2.515625 9.890625 -2.515625 9.6875 -2.515625 L 1.234375 -2.515625 C 1.03125 -2.515625 0.78125 -2.515625 0.78125 -2.25 C 0.78125 -1.984375 1.015625 -1.984375 1.234375 -1.984375 Z M 9.6875 -1.984375 "/>
</g>
<g id="glyph-1-0">
<path d="M 3.640625 -3.296875 C 3.703125 -3.578125 3.953125 -4.578125 4.71875 -4.578125 C 4.78125 -4.578125 5.03125 -4.578125 5.265625 -4.4375 C 4.96875 -4.390625 4.75 -4.109375 4.75 -3.84375 C 4.75 -3.671875 4.859375 -3.46875 5.15625 -3.46875 C 5.40625 -3.46875 5.75 -3.671875 5.75 -4.09375 C 5.75 -4.671875 5.109375 -4.828125 4.734375 -4.828125 C 4.09375 -4.828125 3.71875 -4.25 3.59375 -3.984375 C 3.3125 -4.71875 2.71875 -4.828125 2.40625 -4.828125 C 1.28125 -4.828125 0.65625 -3.40625 0.65625 -3.140625 C 0.65625 -3.03125 0.765625 -3.03125 0.78125 -3.03125 C 0.875 -3.03125 0.90625 -3.046875 0.921875 -3.15625 C 1.296875 -4.3125 2.015625 -4.578125 2.390625 -4.578125 C 2.59375 -4.578125 2.984375 -4.484375 2.984375 -3.84375 C 2.984375 -3.515625 2.796875 -2.78125 2.390625 -1.25 C 2.21875 -0.578125 1.828125 -0.125 1.359375 -0.125 C 1.28125 -0.125 1.03125 -0.125 0.8125 -0.265625 C 1.078125 -0.3125 1.3125 -0.546875 1.3125 -0.84375 C 1.3125 -1.140625 1.078125 -1.234375 0.921875 -1.234375 C 0.59375 -1.234375 0.3125 -0.953125 0.3125 -0.59375 C 0.3125 -0.09375 0.859375 0.125 1.34375 0.125 C 2.0625 0.125 2.453125 -0.640625 2.484375 -0.703125 C 2.625 -0.3125 3.015625 0.125 3.671875 0.125 C 4.78125 0.125 5.40625 -1.28125 5.40625 -1.5625 C 5.40625 -1.671875 5.3125 -1.671875 5.28125 -1.671875 C 5.1875 -1.671875 5.15625 -1.625 5.140625 -1.546875 C 4.78125 -0.375 4.03125 -0.125 3.6875 -0.125 C 3.265625 -0.125 3.09375 -0.46875 3.09375 -0.84375 C 3.09375 -1.078125 3.15625 -1.3125 3.265625 -1.796875 Z M 3.640625 -3.296875 "/>
</g>
<g id="glyph-2-0">
<path d="M 7.5 -3.5625 C 7.65625 -3.5625 7.859375 -3.5625 7.859375 -3.78125 C 7.859375 -4 7.65625 -4 7.5 -4 L 0.96875 -4 C 0.8125 -4 0.609375 -4 0.609375 -3.78125 C 0.609375 -3.5625 0.8125 -3.5625 0.984375 -3.5625 Z M 7.5 -1.453125 C 7.65625 -1.453125 7.859375 -1.453125 7.859375 -1.671875 C 7.859375 -1.890625 7.65625 -1.890625 7.5 -1.890625 L 0.984375 -1.890625 C 0.8125 -1.890625 0.609375 -1.890625 0.609375 -1.671875 C 0.609375 -1.453125 0.8125 -1.453125 0.96875 -1.453125 Z M 7.5 -1.453125 "/>
</g>
<g id="glyph-2-1">
<path d="M 3.15625 -3.84375 C 4.0625 -4.140625 4.6875 -4.890625 4.6875 -5.765625 C 4.6875 -6.65625 3.734375 -7.265625 2.6875 -7.265625 C 1.578125 -7.265625 0.75 -6.609375 0.75 -5.78125 C 0.75 -5.421875 1 -5.21875 1.3125 -5.21875 C 1.640625 -5.21875 1.859375 -5.453125 1.859375 -5.765625 C 1.859375 -6.3125 1.359375 -6.3125 1.1875 -6.3125 C 1.53125 -6.84375 2.25 -6.984375 2.640625 -6.984375 C 3.09375 -6.984375 3.6875 -6.75 3.6875 -5.765625 C 3.6875 -5.640625 3.671875 -5 3.375 -4.53125 C 3.046875 -4 2.6875 -3.96875 2.40625 -3.953125 C 2.328125 -3.953125 2.0625 -3.921875 1.984375 -3.921875 C 1.890625 -3.921875 1.828125 -3.90625 1.828125 -3.796875 C 1.828125 -3.671875 1.890625 -3.671875 2.078125 -3.671875 L 2.5625 -3.671875 C 3.453125 -3.671875 3.859375 -2.9375 3.859375 -1.859375 C 3.859375 -0.375 3.109375 -0.0625 2.625 -0.0625 C 2.15625 -0.0625 1.34375 -0.25 0.953125 -0.890625 C 1.34375 -0.84375 1.671875 -1.078125 1.671875 -1.5 C 1.671875 -1.890625 1.390625 -2.109375 1.0625 -2.109375 C 0.8125 -2.109375 0.453125 -1.953125 0.453125 -1.46875 C 0.453125 -0.484375 1.46875 0.234375 2.65625 0.234375 C 3.984375 0.234375 4.984375 -0.75 4.984375 -1.859375 C 4.984375 -2.765625 4.296875 -3.609375 3.15625 -3.84375 Z M 3.15625 -3.84375 "/>
</g>
<g id="glyph-2-2">
<path d="M 4.453125 -2.515625 L 7.5 -2.515625 C 7.65625 -2.515625 7.859375 -2.515625 7.859375 -2.71875 C 7.859375 -2.9375 7.65625 -2.9375 7.5 -2.9375 L 4.453125 -2.9375 L 4.453125 -6 C 4.453125 -6.15625 4.453125 -6.359375 4.25 -6.359375 C 4.03125 -6.359375 4.03125 -6.15625 4.03125 -6 L 4.03125 -2.9375 L 0.96875 -2.9375 C 0.8125 -2.9375 0.609375 -2.9375 0.609375 -2.71875 C 0.609375 -2.515625 0.8125 -2.515625 0.96875 -2.515625 L 4.03125 -2.515625 L 4.03125 0.546875 C 4.03125 0.703125 4.03125 0.90625 4.25 0.90625 C 4.453125 0.90625 4.453125 0.703125 4.453125 0.546875 Z M 4.453125 -2.515625 "/>
</g>
</g>
</defs>
<path fill="none" stroke-width="0.3985" stroke-linecap="round" stroke-linejoin="round" stroke="rgb(69.999695%, 69.999695%, 69.999695%)" stroke-opacity="1" stroke-miterlimit="10" d="M 0.0001875 3.986281 L 0.0001875 30.02925 C 0.0001875 32.232375 1.785344 34.017531 3.984563 34.017531 L 92.394719 34.017531 C 94.593938 34.017531 96.379094 32.232375 96.379094 30.02925 L 96.379094 3.986281 C 96.379094 1.783156 94.593938 0.00190625 92.394719 0.00190625 L 3.984563 0.00190625 C 1.785344 0.00190625 0.0001875 1.783156 0.0001875 3.986281 Z M 0.0001875 3.986281 " transform="matrix(1, 0, 0, -1, 2.617, 36.998)"/>
<g fill="rgb(0%, 0%, 0%)" fill-opacity="1">
<use xlink:href="#glyph-0-0" x="104.872" y="22.579"/>
</g>
<path fill="none" stroke-width="0.3985" stroke-linecap="round" stroke-linejoin="round" stroke="rgb(69.999695%, 69.999695%, 69.999695%)" stroke-opacity="1" stroke-miterlimit="10" d="M 119.054875 3.986281 L 119.054875 30.02925 C 119.054875 32.232375 120.840031 34.017531 123.043156 34.017531 L 211.449406 34.017531 C 213.652531 34.017531 215.437688 32.232375 215.437688 30.02925 L 215.437688 3.986281 C 215.437688 1.783156 213.652531 0.00190625 211.449406 0.00190625 L 123.043156 0.00190625 C 120.840031 0.00190625 119.054875 1.783156 119.054875 3.986281 Z M 119.054875 3.986281 " transform="matrix(1, 0, 0, -1, 2.617, 36.998)"/>
<g fill="rgb(0%, 0%, 0%)" fill-opacity="1">
<use xlink:href="#glyph-1-0" x="97.217" y="49.281"/>
</g>
<g fill="rgb(0%, 0%, 0%)" fill-opacity="1">
<use xlink:href="#glyph-2-0" x="106.482" y="49.281"/>
</g>
<g fill="rgb(0%, 0%, 0%)" fill-opacity="1">
<use xlink:href="#glyph-2-1" x="117.980191" y="49.281"/>
</g>
<path fill-rule="nonzero" fill="rgb(83.529663%, 88.311768%, 93.174744%)" fill-opacity="1" stroke-width="0.79701" stroke-linecap="round" stroke-linejoin="round" stroke="rgb(17.64679%, 41.569519%, 65.879822%)" stroke-opacity="1" stroke-miterlimit="10" d="M 41.10175 5.669875 L 55.277531 5.669875 L 58.109563 28.345656 L 38.269719 28.345656 Z M 41.10175 5.669875 " transform="matrix(1, 0, 0, -1, 2.617, 36.998)"/>
<g fill="rgb(14.099121%, 33.299255%, 52.69928%)" fill-opacity="1">
<use xlink:href="#glyph-1-0" x="47.689" y="22.339"/>
</g>
<path fill-rule="nonzero" fill="rgb(85.244751%, 90.609741%, 89.904785%)" fill-opacity="1" stroke-width="0.79701" stroke-linecap="round" stroke-linejoin="round" stroke="rgb(18.03894%, 47.840881%, 43.920898%)" stroke-opacity="1" stroke-miterlimit="10" d="M 156.472844 17.009719 C 156.472844 20.451125 153.683781 23.244094 150.238469 23.244094 C 146.793156 23.244094 144.000188 20.451125 144.000188 17.009719 C 144.000188 13.564406 146.793156 10.771438 150.238469 10.771438 C 153.683781 10.771438 156.472844 13.564406 156.472844 17.009719 Z M 156.472844 17.009719 " transform="matrix(1, 0, 0, -1, 2.617, 36.998)"/>
<g fill="rgb(14.399719%, 38.299561%, 35.099792%)" fill-opacity="1">
<use xlink:href="#glyph-2-2" x="148.613" y="22.717"/>
</g>
<path fill-rule="nonzero" fill="rgb(85.244751%, 90.609741%, 89.904785%)" fill-opacity="1" stroke-width="0.79701" stroke-linecap="round" stroke-linejoin="round" stroke="rgb(18.03894%, 47.840881%, 43.920898%)" stroke-opacity="1" stroke-miterlimit="10" d="M 173.480656 17.009719 C 173.480656 20.451125 170.691594 23.244094 167.246281 23.244094 C 163.800969 23.244094 161.008 20.451125 161.008 17.009719 C 161.008 13.564406 163.800969 10.771438 167.246281 10.771438 C 170.691594 10.771438 173.480656 13.564406 173.480656 17.009719 Z M 173.480656 17.009719 " transform="matrix(1, 0, 0, -1, 2.617, 36.998)"/>
<g fill="rgb(14.399719%, 38.299561%, 35.099792%)" fill-opacity="1">
<use xlink:href="#glyph-2-2" x="165.621" y="22.717"/>
</g>
<path fill-rule="nonzero" fill="rgb(85.244751%, 90.609741%, 89.904785%)" fill-opacity="1" stroke-width="0.79701" stroke-linecap="round" stroke-linejoin="round" stroke="rgb(18.03894%, 47.840881%, 43.920898%)" stroke-opacity="1" stroke-miterlimit="10" d="M 190.492375 17.009719 C 190.492375 20.451125 187.699406 23.244094 184.254094 23.244094 C 180.808781 23.244094 178.019719 20.451125 178.019719 17.009719 C 178.019719 13.564406 180.808781 10.771438 184.254094 10.771438 C 187.699406 10.771438 190.492375 13.564406 190.492375 17.009719 Z M 190.492375 17.009719 " transform="matrix(1, 0, 0, -1, 2.617, 36.998)"/>
<g fill="rgb(14.399719%, 38.299561%, 35.099792%)" fill-opacity="1">
<use xlink:href="#glyph-2-2" x="182.629" y="22.717"/>
</g>
</svg>
