<?xml version="1.0" encoding="UTF-8"?>
<svg xmlns="http://www.w3.org/2000/svg" xmlns:xlink="http://www.w3.org/1999/xlink" width="170pt" height="110pt" viewBox="0 0 170 110">
<defs>
<g>
<g id="glyph-0-0">
<path d="M 4.828125 -7.609375 C 4.75 -7.75 4.71875 -7.8125 4.53125 -7.8125 C 4.359375 -7.8125 4.328125 -7.75 4.25 -7.609375 L 0.5625 -0.21875 C 0.515625 -0.125 0.515625 -0.09375 0.515625 -0.09375 C 0.515625 0 0.578125 0 0.75 0 L 8.328125 0 C 8.5 0 8.5625 0 8.5625 -0.09375 C 8.5625 -0.09375 8.5625 -0.125 8.5 -0.21875 Z M 4.1875 -6.71875 L 7.125 -0.828125 L 1.25 -0.828125 Z M 4.1875 -6.71875 "/>
</g>
<g id="glyph-1-0">
<path d="M 1.953125 -1.25 C 1.515625 -0.53125 1.09375 -0.375 0.609375 -0.34375 C 0.484375 -0.328125 0.375 -0.328125 0.375 -0.125 C 0.375 -0.046875 0.4375 0 0.53125 0 C 0.8125 0 1.15625 -0.03125 1.46875 -0.03125 C 1.828125 -0.03125 2.203125 0 2.546875 0 C 2.625 0 2.765625 0 2.765625 -0.203125 C 2.765625 -0.328125 2.65625 -0.34375 2.578125 -0.34375 C 2.328125 -0.359375 2.078125 -0.453125 2.078125 -0.71875 C 2.078125 -0.84375 2.140625 -0.96875 2.21875 -1.125 L 3.046875 -2.515625 L 5.796875 -2.515625 C 5.8125 -2.296875 5.96875 -0.8125 5.96875 -0.703125 C 5.96875 -0.375 5.40625 -0.34375 5.1875 -0.34375 C 5.03125 -0.34375 4.921875 -0.34375 4.921875 -0.125 C 4.921875 0 5.046875 0 5.078125 0 C 5.515625 0 5.984375 -0.03125 6.4375 -0.03125 C 6.703125 -0.03125 7.390625 0 7.671875 0 C 7.734375 0 7.859375 0 7.859375 -0.21875 C 7.859375 -0.34375 7.75 -0.34375 7.609375 -0.34375 C 6.9375 -0.34375 6.9375 -0.421875 6.90625 -0.734375 L 6.234375 -7.546875 C 6.21875 -7.765625 6.21875 -7.8125 6.03125 -7.8125 C 5.859375 -7.8125 5.8125 -7.734375 5.75 -7.625 Z M 3.265625 -2.859375 L 5.40625 -6.453125 L 5.765625 -2.859375 Z M 3.265625 -2.859375 "/>
</g>
<g id="glyph-2-0">
<path d="M 2.109375 -3.78125 C 2.15625 -3.875 2.1875 -3.9375 2.1875 -4.015625 C 2.1875 -4.28125 1.9375 -4.453125 1.71875 -4.453125 C 1.40625 -4.453125 1.3125 -4.171875 1.28125 -4.0625 L 0.265625 -0.625 C 0.234375 -0.53125 0.234375 -0.515625 0.234375 -0.5 C 0.234375 -0.4375 0.28125 -0.421875 0.359375 -0.390625 C 0.515625 -0.328125 0.53125 -0.328125 0.546875 -0.328125 C 0.5625 -0.328125 0.609375 -0.328125 0.671875 -0.46875 Z M 2.109375 -3.78125 "/>
</g>
</g>
</defs>
<path fill="none" stroke-width="0.79701" stroke-linecap="round" stroke-linejoin="round" stroke="rgb(90.99884%, 44.699097%, 36.099243%)" stroke-opacity="1" stroke-dasharray="2.98883 2.98883" stroke-miterlimit="10" d="M -0.00096875 -42.521125 L -0.00096875 51.02575 " transform="matrix(1, 0, 0, -1, 85.333, 64.932)"/>
<g fill="rgb(90.99884%, 44.699097%, 36.099243%)" fill-opacity="1">
<use xlink:href="#glyph-0-0" x="80.788" y="9.873"/>
</g>
<path fill-rule="nonzero" fill="rgb(90.162659%, 93.740845%, 93.270874%)" fill-opacity="1" stroke-width="0.79701" stroke-linecap="round" stroke-linejoin="round" stroke="rgb(0%, 0%, 0%)" stroke-opacity="1" stroke-miterlimit="10" d="M -25.512687 -0.00159375 C -25.512687 15.654656 -38.204094 28.346063 -53.860344 28.346063 C -69.512687 28.346063 -82.204094 15.654656 -82.204094 -0.00159375 C -82.204094 -15.653937 -69.512687 -28.345344 -53.860344 -28.345344 C -38.204094 -28.345344 -25.512687 -15.653937 -25.512687 -0.00159375 Z M -25.512687 -0.00159375 " transform="matrix(1, 0, 0, -1, 85.333, 64.932)"/>
<path fill-rule="nonzero" fill="rgb(96.186829%, 91.459656%, 85.035706%)" fill-opacity="1" stroke-width="0.79701" stroke-linecap="round" stroke-linejoin="round" stroke="rgb(0%, 0%, 0%)" stroke-opacity="1" stroke-miterlimit="10" d="M 82.206063 -0.00159375 C 82.206063 15.654656 69.514656 28.346063 53.858406 28.346063 C 38.202156 28.346063 25.51075 15.654656 25.51075 -0.00159375 C 25.51075 -15.653937 38.202156 -28.345344 53.858406 -28.345344 C 69.514656 -28.345344 82.206063 -15.653937 82.206063 -0.00159375 Z M 82.206063 -0.00159375 " transform="matrix(1, 0, 0, -1, 85.333, 64.932)"/>
<path fill-rule="nonzero" fill="rgb(0%, 0%, 0%)" fill-opacity="1" d="M 32.96875 64.933594 C 32.96875 64.105469 32.300781 63.4375 31.472656 63.4375 C 30.648438 63.4375 29.980469 64.105469 29.980469 64.933594 C 29.980469 65.757812 30.648438 66.425781 31.472656 66.425781 C 32.300781 66.425781 32.96875 65.757812 32.96875 64.933594 Z M 32.96875 64.933594 "/>
<g fill="rgb(0%, 0%, 0%)" fill-opacity="1">
<use xlink:href="#glyph-1-0" x="27.383" y="76.222"/>
</g>
<path fill-rule="nonzero" fill="rgb(0%, 0%, 0%)" fill-opacity="1" d="M 140.6875 64.933594 C 140.6875 64.105469 140.015625 63.4375 139.191406 63.4375 C 138.367188 63.4375 137.699219 64.105469 137.699219 64.933594 C 137.699219 65.757812 138.367188 66.425781 139.191406 66.425781 C 140.015625 66.425781 140.6875 65.757812 140.6875 64.933594 Z M 140.6875 64.933594 "/>
<g fill="rgb(0%, 0%, 0%)" fill-opacity="1">
<use xlink:href="#glyph-1-0" x="133.703" y="77.154"/>
</g>
<g fill="rgb(0%, 0%, 0%)" fill-opacity="1">
<use xlink:href="#glyph-2-0" x="141.885" y="73.195"/>
</g>
</svg>
